<?xml version="1.0" encoding="UTF-8" standalone="no"?>
<!DOCTYPE svg PUBLIC "-//W3C//DTD SVG 1.1//EN" "http://www.w3.org/Graphics/SVG/1.1/DTD/svg11.dtd">
<svg width="100%" height="100%" viewBox="0 0 16 16" version="1.1" xmlns="http://www.w3.org/2000/svg" xmlns:xlink="http://www.w3.org/1999/xlink" xml:space="preserve" xmlns:serif="http://www.serif.com/" style="fill-rule:evenodd;clip-rule:evenodd;stroke-linejoin:round;stroke-miterlimit:2;" stroke="currentColor">
    <path d="M10.906,11.81C12.677,11.599 14.218,10.514 14.412,9.523C14.717,7.961 14.693,5.711 14.693,5.711C14.693,2.662 12.684,1.768 12.684,1.768C11.672,1.305 9.933,1.111 8.127,1.096L8.083,1.096C6.276,1.111 4.538,1.305 3.526,1.768C3.526,1.768 1.518,2.662 1.518,5.711L1.516,6.293C1.513,6.855 1.51,7.479 1.526,8.13C1.599,11.112 2.076,14.052 4.847,14.781C6.125,15.117 7.222,15.188 8.106,15.139C9.708,15.051 10.607,14.571 10.607,14.571L10.555,13.414C10.555,13.414 9.41,13.774 8.123,13.73C6.85,13.686 5.505,13.593 5.299,12.036C5.279,11.892 5.269,11.746 5.27,11.6C5.27,11.455 6.521,11.904 8.106,11.976C9.075,12.02 9.983,11.92 10.907,11.81L10.906,11.81Z" style="fill:none;stroke-width:0.85px;"/>
    <g transform="matrix(0.826545,0,0,0.826545,1.34801,1.28025)">
        <path d="M3.883,9.639L3.883,5.947C3.883,5.193 4.077,4.594 4.463,4.15C4.864,3.706 5.388,3.479 6.039,3.479C6.791,3.479 7.374,3.791 7.751,4.366L8.117,5.309L8.484,4.366C8.861,3.791 9.416,3.479 10.169,3.479C10.819,3.479 11.343,3.706 11.742,4.15C12.131,4.594 12.323,5.193 12.323,5.947L12.323,9.64" style="fill:none;stroke-width:1.03px;stroke-linecap:round;stroke-miterlimit:1;"/>
    </g>
</svg>
